<svg width="128" height="128" viewBox="0 0 128 128" fill="none" xmlns="http://www.w3.org/2000/svg"><path d="M85.717 79.715h5.29a1.06 1.06 0 0 0 1.058-1.061v-5.306a1.06 1.06 0 0 0-1.058-1.061h-5.29a1.06 1.06 0 0 0-1.058 1.06v5.307a1.06 1.06 0 0 0 1.058 1.061m1.058-5.306h3.174v3.184h-3.174zm-50.253 5.306h5.29a1.06 1.06 0 0 0 1.058-1.061v-5.306a1.06 1.06 0 0 0-1.058-1.061h-5.29a1.06 1.06 0 0 0-1.058 1.06v5.307a1.06 1.06 0 0 0 1.058 1.061m1.058-5.306h3.174v3.184H37.58zm24.069-6.7h3.702a1.06 1.06 0 0 0 1.058-1.06 1.06 1.06 0 0 0-1.058-1.062h-3.703a1.06 1.06 0 0 0-1.058 1.062 1.06 1.06 0 0 0 1.058 1.06" fill="#d1b28b"/><path d="m98.83 90.723-70.625-.002a.8.8 0 0 1-.241.002.801.801 0 0 1 .207-1.587l5.265.002-.147-.37a2.8 2.8 0 0 1-.202-1.052v-4.8l-.015-.043c-.52-1.475-1.766-5.767-2.085-13.755a19.45 19.45 0 0 1 6.35-15.453l.195-.178-.889-1.02-.2.162a3.7 3.7 0 0 1-2.31.816h-.511a3.724 3.724 0 0 1-3.708-3.72v-.156a1.955 1.955 0 0 1 1.946-1.952h4.033a1.955 1.955 0 0 1 1.947 1.952v.156a3.7 3.7 0 0 1-.219 1.246l-.053.15.648.746.17-.39c2.365-5.413 6.482-11.346 6.522-11.402 1.098-1.762 8.045-2.806 18.592-2.806s17.505 1.058 18.615 2.83c.478.697 4.58 6.74 6.758 11.988l.154.372.72-.723-.102-.178a3.7 3.7 0 0 1-.485-1.833v-.156a1.955 1.955 0 0 1 1.947-1.952h4.033a1.955 1.955 0 0 1 1.946 1.953v.155a3.724 3.724 0 0 1-3.708 3.72h-.51a3.7 3.7 0 0 1-1.826-.487l-.179-.102-.989.992.197.19a19.6 19.6 0 0 1 5.942 15.078c-.319 7.988-1.564 12.282-2.085 13.757l-.015.043v4.8c0 .362-.069.716-.202 1.053l-.147.37h5.23a.8.8 0 0 1 .242-.002.8.8 0 0 1 .688.898.8.8 0 0 1-.895.688m-56.758-3.006c0 .362-.069.716-.202 1.051l-.147.37h43.554l-.147-.37a2.8 2.8 0 0 1-.202-1.052v-3.76h-.835a.8.8 0 0 1-.592-.27l-1.09-1.232H44.59l-1.091 1.232a.8.8 0 0 1-.594.27h-.833zm44.435 0c0 .71.576 1.287 1.284 1.288h3.258a1.29 1.29 0 0 0 1.285-1.288v-3.761h-5.827zm-51.841 0c0 .71.577 1.287 1.284 1.288h3.259a1.29 1.29 0 0 0 1.284-1.288v-3.761h-5.827zm48.108-6.846c.223 0 .436.096.584.264l1.09 1.237h7.979l.062-.182c.485-1.429 1.645-5.569 1.945-13.135.033-.814.014-1.639-.054-2.452l-.02-.23-.23-.016a38.4 38.4 0 0 0-7.105.189 61 61 0 0 0-9.694 2.2c-4.051 1.165-8.246 2.373-13.505 2.373a41.2 41.2 0 0 1-10.72-1.516 105 105 0 0 0-10.59-2.318c-2.392-.373-4.483-.562-6.216-.562-2.03 0-3.095.264-3.55.422l-.173.06-.008.183a20 20 0 0 0-.003 1.667c.3 7.55 1.46 11.7 1.945 13.135l.062.183h7.978l1.091-1.238a.78.78 0 0 1 .584-.264zM47.448 62.304c.2.594.251 1.234.15 1.853a4.3 4.3 0 0 1-.865 1.895l-.275.343.43.09c2.064.43 4.292.964 6.62 1.587 3.71.991 7.089 1.473 10.328 1.473 4.994 0 8.914-1.129 13.065-2.323q.98-.284 1.98-.563l.364-.102-.216-.312a4.5 4.5 0 0 1-.762-1.97 4.25 4.25 0 0 1 .198-1.865l.153-.45-.463.099a72.4 72.4 0 0 1-14.998 1.583 71 71 0 0 1-15.396-1.687l-.465-.103zm43.686-4.25a77 77 0 0 1-10.22 3.362l-.075.019-.053.056a3.5 3.5 0 0 0-.956 2.557 3.36 3.36 0 0 0 1.043 1.954l.107.099.141-.037a47 47 0 0 1 5.713-1.09 40 40 0 0 1 6.95-.223l.35.02-.071-.343a17.8 17.8 0 0 0-2.604-6.273l-.121-.184zM36.309 65.14c1.812 0 3.981.196 6.449.58a76 76 0 0 1 1.614.275l.105.019.089-.058a3.47 3.47 0 0 0 1.472-2.05c.13-.798-.18-1.633-.919-2.504l-.056-.074-.114-.061a55 55 0 0 1-9.063-3.224l-.208-.096-.127.192a17.8 17.8 0 0 0-2.741 6.963l-.065.388.384-.08c.87-.178 1.94-.27 3.18-.27M63.5 38.853c-9.736 0-16.422 1.053-17.262 2.072-.507.737-4.847 7.127-6.888 12.346-.112.29-.22.57-.316.849a.9.9 0 0 1-.291.432 13.2 13.2 0 0 0-1.87 1.832l-.226.272.321.146c3.463 1.582 12.945 5.26 26.16 5.26 9.087 0 18.133-1.769 26.887-5.26l.346-.137-.24-.286a13 13 0 0 0-1.86-1.824.83.83 0 0 1-.275-.379c-1.939-5.593-7.14-13.133-7.192-13.205-.845-1.034-7.186-2.118-17.294-2.118M91.106 49.2a.37.37 0 0 0-.367.369v.156a2.14 2.14 0 0 0 2.13 2.137h.51a2.14 2.14 0 0 0 2.129-2.137v-.156a.37.37 0 0 0-.368-.37zm-59.246 0a.37.37 0 0 0-.368.369v.156a2.14 2.14 0 0 0 2.13 2.137h.51a2.14 2.14 0 0 0 2.13-2.137v-.156a.37.37 0 0 0-.368-.37zm14.977 29.184a.791.791 0 0 1 0-1.583h33.326a.791.791 0 0 1 0 1.583zm1.851-3.714a.791.791 0 0 1 0-1.584h29.624a.791.791 0 0 1 0 1.584zM62.71 58.773c-12.384 0-20.297-2.697-20.627-2.812a.79.79 0 0 1-.487-1.01c1.686-4.824 6.025-11.058 6.21-11.32.956-1.518 6.674-2.382 15.694-2.382s14.748.88 15.716 2.412c.052.075 4.497 6.45 6.188 11.29a.79.79 0 0 1-.552 1.03 90.7 90.7 0 0 1-22.142 2.792m.79-15.94c-7.979 0-13.574.847-14.373 1.667-.69.999-3.966 5.853-5.64 9.923l-.116.281.292.082c2.537.71 9.486 2.364 19.199 2.364a88.4 88.4 0 0 0 20.44-2.42l.308-.072-.121-.293c-1.852-4.47-5.55-9.773-5.587-9.826-.824-.856-6.419-1.707-14.402-1.707" fill="#1c1c1c"/></svg>