<svg width="128" height="128" viewBox="0 0 128 128" fill="none" xmlns="http://www.w3.org/2000/svg"><path d="M81.203 70.21c-1.882 0-3.86-.074-5.886-.22-7.045-.504-7.488-3.702-7.957-7.088l-.083-.595c-.513-3.54-2.338-10.94-2.96-11.997a4 4 0 0 1-.12-.182 3.247 3.247 0 0 1 1.11-4.406 12.5 12.5 0 0 1 7.148-1.943c6.207.148 11.798 4.459 13.919 10.727a53 53 0 0 1 2.134 9.85q.077.575.134.951a4.44 4.44 0 0 1-2.072 4.586.8.8 0 0 1-.293.094c-1.51.149-3.054.225-4.58.225zm-11.654-4.786c.71 1.85 2.358 2.67 5.884 2.922a67 67 0 0 0 10.323.036l.15-.01.116-.095a2.84 2.84 0 0 0 1.006-2.727l-.112-.778H69.3zm2.453-20a10.85 10.85 0 0 0-5.818 1.689 1.6 1.6 0 0 0-.617 2.116c.085.131.12.182.15.235.842 1.428 2.693 9.276 3.175 12.603l.143 1.02.422.037h17.224l-.081-.55a46 46 0 0 0-1.77-7.53c-1.901-5.622-6.887-9.484-12.407-9.616zM55.439 66.795q-.324 0-.65-.045l-8.12-1.14-.076.013a.66.66 0 0 1-.404-.057l-.07-.034-21.925-3.08a.824.824 0 0 1-.658-1.09.82.82 0 0 1 .421-.472l27.365-13.138a4.7 4.7 0 0 1 2.025-.465c.72 0 1.44.171 2.083.494a4.67 4.67 0 0 1 2.52 3.272l2.092 10.03a4.78 4.78 0 0 1-1.167 4.21 4.7 4.7 0 0 1-3.436 1.502M53.347 48.94a3.06 3.06 0 0 0-1.325.303l-4.7 2.257v12.537l7.691 1.08q.217.032.435.032c.85 0 1.665-.36 2.239-.986.685-.73.97-1.757.758-2.741l-2.092-10.026a3.05 3.05 0 0 0-1.643-2.134 3.06 3.06 0 0 0-1.363-.322m-16.816 7.74v5.841l9.159 1.287V52.282zm-9.413 4.52 7.782 1.09v-4.828z" fill="#d1b28b"/><path d="m107.209 90.756-86.533-.004c-.097.01-.133.011-.169.011a.825.825 0 0 1-.82-.934.83.83 0 0 1 .927-.713l68.143.004-65.251-19.38a.827.827 0 0 1-.555-1.017.827.827 0 0 1 1.02-.564l35.332 10.494-.554-1.02a23 23 0 0 0-1.88-2.906l-.113-.149-3.694-.662a.82.82 0 0 1-.591-.45l-1.275-2.653-20.31-2.854a.826.826 0 0 1 .229-1.633L51.85 69.24c.27.039.503.21.622.456l1.283 2.67 15.148 2.715h19.138c4.62 0 5.314-3.796 5.377-4.229.018-.13 1.578-12.59-7.34-24.939-3.348-4.638-8.778-6.99-16.139-6.99-4.033 0-7.75.726-10.159 1.334a27.7 27.7 0 0 0-5.35 1.977L24.09 57.082a.81.81 0 0 1-1.089-.38.83.83 0 0 1 .379-1.105L53.72 40.75a29.3 29.3 0 0 1 5.665-2.093c2.486-.628 6.334-1.377 10.546-1.377 7.919 0 13.796 2.578 17.467 7.662 9.36 12.962 7.712 25.606 7.637 26.138-.258 1.957-2.051 5.65-6.994 5.65h-1.114l.326 1.099c.232.79.192 1.649-.115 2.415l-.195.489 17.372 5.142c.432.13.681.59.553 1.024a.82.82 0 0 1-1.012.559l-18.337-5.429-.166.08q-.23.108-.473.18c-2.252.557-4.59.87-6.931.926l-3.045.072 19.637 5.833h12.604c.098-.008.134-.01.17-.01q.053 0 .107.006a.82.82 0 0 1 .548.316.829.829 0 0 1-.654 1.331s-.072-.002-.109-.007M59.653 75.915c.547.864.984 1.794 1.3 2.766.13.377.432.65.811.738l6.078 1.675c.708.096 4.109.506 8.085.506 3.434 0 6.309-.305 8.545-.907.457-.13.84-.44 1.059-.855a2.02 2.02 0 0 0 .16-1.535l-.466-1.573H68.833a1 1 0 0 1-.143-.013l-9.62-1.724z" fill="#1c1c1c"/></svg>