<svg width="128" height="128" viewBox="0 0 128 128" fill="none" xmlns="http://www.w3.org/2000/svg"><path d="M60.974 40.783a.96.96 0 0 1 .943-.783h4.486a.96.96 0 0 1 .943.782l2.083 11.08a14 14 0 0 0-2.09-.728l-1.733-9.214h-2.892l-1.733 9.214q-1.076.28-2.09.729zm20.938 38.616a8.7 8.7 0 0 0-.925 3.416l-1.502.277a17.8 17.8 0 0 0 1.501-3.519zm32.758-6.132a.96.96 0 0 0-.901-1.267H82.26q.11.956.133 1.92h27.728l-5.047 1.26a260 260 0 0 1-8.28 1.9 9.4 9.4 0 0 1 1.213 1.71c16.018-3.462 16.433-4.791 16.663-5.523m-65.835 9.825-1.503-.277a8.7 8.7 0 0 0-.925-3.416l.927.174a17.8 17.8 0 0 0 1.501 3.52M31.527 77.08a260 260 0 0 1-8.281-1.899l-5.047-1.261h27.727c.017-.64.061-1.283.133-1.92H14.553a.95.95 0 0 0-.63.241c-.015.014-.03.028-.033.028l.004-.008-.044.053a.98.98 0 0 0-.25.675c.003.095.02.188.055.292.224.718.64 2.047 16.658 5.51a9.4 9.4 0 0 1 1.214-1.711m86.221 11.254a.975.975 0 1 0-.128-1.939l-.042.005H71.322l1.404-1.137A13.96 13.96 0 0 0 77.92 74.35c0-3.863-1.54-8.64-4.016-12.466-1.616-2.497-5.03-6.684-9.744-6.684s-8.128 4.187-9.744 6.684C51.939 65.71 50.4 70.487 50.4 74.35a13.96 13.96 0 0 0 5.194 10.912l1.403 1.137H10.741l-.04-.005a.975.975 0 0 0-.252 1.93 1 1 0 0 0 .25 0l.042-.005H117.58l.041.006a1 1 0 0 0 .128.008M72.543 63.378c2.1 3.44 3.457 7.747 3.457 10.96.121 6.528-5.091 11.939-11.62 12.06l-.224.002c-6.407 0-11.717-5.213-11.836-11.622a12 12 0 0 1 0-.428c0-3.225 1.357-7.531 3.457-10.972 2.462-4.036 5.44-6.258 8.383-6.258s5.92 2.222 8.383 6.258" fill="#1c1c1c"/><path d="M38.906 61.006a.96.96 0 0 1 .445-1.806l11.5-.11a28 28 0 0 0-1.18 1.93l-6.559.063 5.167 2.773q-.381.889-.708 1.8zm50.508 0a.961.961 0 0 0-.445-1.806l-11.5-.11q.63.943 1.18 1.93l6.559.063-5.167 2.773q.381.888.708 1.8zm-21.99 7.16a8.4 8.4 0 0 1 1.718-.664.96.96 0 0 0 .614-.403.96.96 0 0 0-.953-1.487 9.3 9.3 0 0 0-2.117.775 6.6 6.6 0 0 1-2.448.808l-.078.01-.078-.01a6.5 6.5 0 0 1-2.426-.796 9.3 9.3 0 0 0-2.116-.782.96.96 0 0 0-.979 1.48c.144.212.362.356.664.416a8.4 8.4 0 0 1 1.684.66 7.8 7.8 0 0 0 3.25.946 7.9 7.9 0 0 0 3.264-.954M64.16 81.92a5.72 5.72 0 0 0 4.073-1.687.961.961 0 0 0-.68-1.638c-.256 0-.497.1-.688.29a3.9 3.9 0 0 1-2.705 1.084 3.9 3.9 0 0 1-2.715-1.094.96.96 0 0 0-.68-.282.961.961 0 0 0-.68 1.639 5.72 5.72 0 0 0 4.075 1.688m-20.969 3.2c.424-1.1.443-2.303.046-3.427a4.93 4.93 0 0 0-2.536-2.824 4.9 4.9 0 0 0-2.137-.487 4.99 4.99 0 0 0-4.478 2.821 4.93 4.93 0 0 0-.157 3.917h2.154a3.02 3.02 0 0 1-.563-1.76 3.05 3.05 0 0 1 3.04-3.04 3.044 3.044 0 0 1 3.04 3.04c0 .655-.209 1.263-.563 1.76zm51.2 0c.424-1.1.443-2.303.046-3.427a4.93 4.93 0 0 0-2.536-2.824 4.9 4.9 0 0 0-2.137-.487 4.99 4.99 0 0 0-4.478 2.821 4.93 4.93 0 0 0-.157 3.917h2.154a3.02 3.02 0 0 1-.563-1.76 3.05 3.05 0 0 1 3.04-3.04 3.044 3.044 0 0 1 3.04 3.04c0 .655-.209 1.263-.563 1.76z" fill="#d1b28b"/></svg>