<svg width="349" height="86" viewBox="0 0 349 86" fill="none" xmlns="http://www.w3.org/2000/svg"><path d="M77.64 34.2v28.68c0 3.6 0 17.88.36 21-.24.72-.96 1.32-2.28 1.32-1.44-2.04-4.92-6.24-15.36-18.12L32.52 35.4c-3.24-3.72-11.4-13.56-13.92-16.2h-.24c-.48 1.44-.6 4.2-.6 7.8v26.16c0 5.64.12 21.24 2.16 24.84.72 1.32 3.12 2.04 6.12 2.28l3.72.36c.72.96.6 2.4-.24 3-5.4-.24-9.6-.36-14.04-.36-5.04 0-8.28.12-12.48.36-.84-.6-.96-2.28-.24-3L6 80.28c2.76-.36 4.68-1.08 5.28-2.4 1.68-4.32 1.56-18.96 1.56-24.72V18.48c0-3.36-.12-5.88-2.64-8.64-1.68-1.68-4.56-2.52-7.44-2.88L.72 6.72C0 6 0 4.2.96 3.72c5.04.36 11.4.36 13.56.36 1.92 0 3.96-.12 5.52-.36 2.4 6.12 16.56 21.96 20.52 26.4L52.2 43.2c8.28 9.24 14.16 15.96 19.8 21.72h.24c.48-.6.48-2.52.48-5.04V34.2c0-5.64-.12-21.24-2.4-24.84-.72-1.08-2.64-1.8-7.44-2.4l-2.04-.24c-.84-.72-.72-2.64.24-3 5.52.24 9.6.36 14.16.36 5.16 0 8.28-.12 12.36-.36.96.6.96 2.28.24 3l-1.68.24c-3.84.6-6.24 1.56-6.72 2.52-2.04 4.32-1.8 19.2-1.8 24.72m62.304 51c-26.64 0-42.72-19.08-42.72-40.68 0-24 18-42.36 42.72-42.36 27.72 0 41.64 20.04 41.64 41.16 0 24.24-18.48 41.88-41.64 41.88m1.56-3.72c14.4 0 28.08-10.8 28.08-34.44 0-19.8-8.76-41.16-31.68-41.16-12.48 0-28.68 8.52-28.68 34.8 0 17.76 8.64 40.8 32.28 40.8m86.118-69.6v53.4c0 12.6.24 14.4 7.2 15l3.84.36c.72.48.48 2.64-.24 3-6.84-.24-10.92-.36-15.72-.36s-9 .12-16.68.36c-.72-.36-.96-2.4 0-3l4.32-.36c6.84-.6 7.44-2.4 7.44-15V11.64c0-3.72 0-3.84-3.6-3.84h-6.6c-5.16 0-11.76.24-14.76 3-2.88 2.64-4.08 5.28-5.4 8.28-.96.72-2.64.12-3.12-.84 1.92-5.4 3.72-13.08 4.56-17.88.36-.24 1.92-.36 2.28 0 .72 3.84 4.68 3.72 10.2 3.72h48.6c6.48 0 7.56-.24 9.36-3.36.6-.24 1.92-.12 2.16.36-1.32 4.92-2.16 14.64-1.8 18.24-.48.96-2.52.96-3.12.24-.36-3-1.2-7.44-3-8.76-2.76-2.04-7.32-3-13.92-3h-8.52c-3.6 0-3.48.12-3.48 4.08m79.432 73.32c-26.64 0-42.72-19.08-42.72-40.68 0-24 18-42.36 42.72-42.36 27.72 0 41.64 20.04 41.64 41.16 0 24.24-18.48 41.88-41.64 41.88m1.56-3.72c14.4 0 28.08-10.8 28.08-34.44 0-19.8-8.76-41.16-31.68-41.16-12.48 0-28.68 8.52-28.68 34.8 0 17.76 8.64 40.8 32.28 40.8" fill="#fff"/></svg>