<svg width="16" height="16" viewBox="0 0 16 16" fill="none" xmlns="http://www.w3.org/2000/svg"><path d="M8 1.444c2.132 0 2.39.009 3.234.044.781.036 1.204.164 1.483.275.347.13.662.334.92.6.266.258.47.573.6.92.11.28.24.706.275 1.483.04.844.049 1.097.049 3.234s-.01 2.39-.05 3.234c-.035.781-.163 1.204-.274 1.483a2.66 2.66 0 0 1-1.52 1.52c-.284.11-.706.24-1.483.275-.844.04-1.097.049-3.23.049s-2.39-.01-3.233-.05c-.782-.035-1.204-.163-1.484-.274a2.5 2.5 0 0 1-.92-.6 2.5 2.5 0 0 1-.6-.92c-.11-.284-.239-.706-.274-1.483-.04-.844-.045-1.097-.045-3.23s.009-2.39.044-3.233c.036-.782.165-1.204.276-1.484.129-.346.333-.662.6-.92.257-.266.573-.47.92-.6.279-.11.705-.239 1.483-.274.844-.04 1.097-.045 3.233-.045M8 0C5.828 0 5.557.009 4.704.049S3.269.222 2.763.422c-.533.2-1.017.515-1.417.924-.409.4-.72.884-.924 1.417C.227 3.269.089 3.85.049 4.704S0 5.828 0 8s.009 2.443.049 3.296.173 1.43.373 1.941c.2.533.515 1.017.924 1.417.4.409.884.72 1.417.924.506.2 1.088.333 1.941.373S5.828 16 8 16s2.443-.009 3.296-.049 1.43-.173 1.941-.373a4.1 4.1 0 0 0 2.341-2.34c.2-.507.333-1.09.373-1.942.04-.853.049-1.124.049-3.296s-.009-2.443-.049-3.296-.173-1.435-.373-1.941a3.9 3.9 0 0 0-.924-1.417c-.4-.404-.884-.72-1.417-.92-.506-.195-1.088-.333-1.941-.373S10.172.004 8 .004zm0 3.891A4.103 4.103 0 1 0 8 12.1a4.106 4.106 0 0 0 4.104-4.104A4.106 4.106 0 0 0 8 3.89m0 6.774A2.667 2.667 0 0 1 5.335 8 2.667 2.667 0 0 1 8 5.335a2.664 2.664 0 1 1 0 5.33m4.269-7.893c.528 0 .96.43.96.96a.96.96 0 0 1-.96.959.96.96 0 0 1-.96-.96c0-.528.431-.96.96-.96" fill="#fff"/></svg>