<svg width="20" height="16" viewBox="0 0 20 16" fill="none" xmlns="http://www.w3.org/2000/svg"><path d="M12.816 0q-.293.55-.531 1.132a14.7 14.7 0 0 0-4.579 0A12 12 0 0 0 7.176 0a16 16 0 0 0-4.129 1.343C.44 5.422-.267 9.395.084 13.314a16.3 16.3 0 0 0 5.061 2.682c.411-.581.774-1.2 1.085-1.844-.59-.231-1.16-.522-1.707-.859q.216-.167.419-.332a11.32 11.32 0 0 0 10.119 0q.203.179.419.332a10.6 10.6 0 0 1-1.711.863c.31.644.674 1.263 1.085 1.844a16.3 16.3 0 0 0 5.061-2.677c.415-4.546-.71-8.486-2.971-11.976A15.8 15.8 0 0 0 12.819.008zM6.677 10.902c-.985 0-1.803-.943-1.803-2.109S5.66 6.68 6.673 6.68s1.819.952 1.803 2.113-.794 2.11-1.799 2.11m6.645 0c-.99 0-1.799-.943-1.799-2.109s.786-2.113 1.799-2.113 1.815.952 1.799 2.113-.794 2.11-1.799 2.11" fill="#fff"/></svg>